<svg xmlns="http://www.w3.org/2000/svg" viewBox="0 0 512 512" width="512" height="512">
<title>CENGO monogram (maskable)</title>
<rect id="tile" width="512" height="512" fill="#0c0c0c"/>
<path id="glyph" fill="#ffffff" d="M363 119.3L376.5 156.2L374.7 157Q359.2 142.6 337.4 134Q315.5 125.5 289.4 125.5Q264.3 125.5 243.3 133.3Q222.4 141.2 207.3 156.2Q192.3 171.1 183.9 192.9Q175.5 214.6 175.5 242.3Q175.5 272.9 183.5 299.3Q191.5 325.7 207.2 345Q223 364.4 246.6 375.5Q270.2 386.5 301.8 386.5Q313.1 386.5 324.5 384.1Q335.9 381.7 346.3 377.1Q356.8 372.4 366.1 365.7Q375.3 359 382.9 350.4L385.1 351.8L369.2 392.5Q354.2 398.3 336.2 401.4Q318.1 404.5 299.8 404.5Q262.9 404.5 232.2 393.8Q201.6 383.1 179.6 363.6Q157.6 344.1 145.3 316.6Q133 289.2 133 255.7Q133 236.8 137.9 218.4Q142.8 200.1 152.2 183.5Q161.5 167 175.3 153.1Q189.1 139.2 206.7 129.1Q224.4 118.9 245.6 113.2Q266.8 107.5 291.6 107.5Q330.1 107.5 363 119.3Z"/>
</svg>
